P3
3 2
255
139 69 19   139 69 19   139 69 19
160 82 45   160 82 45   160 82 45
